ply
format ascii 1.0
element vertex 676
property double x
property double y
property double z
end_header
-5.000000000000000 -5.000000000000000 1.000000000000000
-5.000000000000000 -4.600000000000000 1.000000000000000
-5.000000000000000 -4.200000000000000 1.000000000000000
-5.000000000000000 -3.800000000000000 1.000000000000000
-5.000000000000000 -3.400000000000000 1.000000000000000
-5.000000000000000 -3.000000000000000 1.000000000000000
-5.000000000000000 -2.600000000000000 1.000000000000000
-5.000000000000000 -2.200000000000000 1.000000000000000
-5.000000000000000 -1.800000000000000 1.000000000000000
-5.000000000000000 -1.400000000000000 1.000000000000000
-5.000000000000000 -1.000000000000000 1.000000000000000
-5.000000000000000 -0.600000000000000 1.000000000000000
-5.000000000000000 -0.199999999999999 1.000000000000000
-5.000000000000000 0.199999999999999 1.000000000000000
-5.000000000000000 0.600000000000000 1.000000000000000
-5.000000000000000 1.000000000000000 1.000000000000000
-5.000000000000000 1.400000000000000 1.000000000000000
-5.000000000000000 1.800000000000000 1.000000000000000
-5.000000000000000 2.200000000000000 1.000000000000000
-5.000000000000000 2.600000000000000 1.000000000000000
-5.000000000000000 3.000000000000000 1.000000000000000
-5.000000000000000 3.400000000000000 1.000000000000000
-5.000000000000000 3.800000000000000 1.000000000000000
-5.000000000000000 4.200000000000000 1.000000000000000
-5.000000000000000 4.600000000000000 1.000000000000000
-5.000000000000000 5.000000000000000 1.000000000000000
-4.600000000000000 -5.000000000000000 1.000000000000000
-4.600000000000000 -4.600000000000000 1.000000000000000
-4.600000000000000 -4.200000000000000 1.000000000000000
-4.600000000000000 -3.800000000000000 1.000000000000000
-4.600000000000000 -3.400000000000000 1.000000000000000
-4.600000000000000 -3.000000000000000 1.000000000000000
-4.600000000000000 -2.600000000000000 1.000000000000000
-4.600000000000000 -2.200000000000000 1.000000000000000
-4.600000000000000 -1.800000000000000 1.000000000000000
-4.600000000000000 -1.400000000000000 1.000000000000000
-4.600000000000000 -1.000000000000000 1.000000000000000
-4.600000000000000 -0.600000000000000 1.000000000000000
-4.600000000000000 -0.199999999999999 1.000000000000000
-4.600000000000000 0.199999999999999 1.000000000000000
-4.600000000000000 0.600000000000000 1.000000000000000
-4.600000000000000 1.000000000000000 1.000000000000000
-4.600000000000000 1.400000000000000 1.000000000000000
-4.600000000000000 1.800000000000000 1.000000000000000
-4.600000000000000 2.200000000000000 1.000000000000000
-4.600000000000000 2.600000000000000 1.000000000000000
-4.600000000000000 3.000000000000000 1.000000000000000
-4.600000000000000 3.400000000000000 1.000000000000000
-4.600000000000000 3.800000000000000 1.000000000000000
-4.600000000000000 4.200000000000000 1.000000000000000
-4.600000000000000 4.600000000000000 1.000000000000000
-4.600000000000000 5.000000000000000 1.000000000000000
-4.200000000000000 -5.000000000000000 1.000000000000000
-4.200000000000000 -4.600000000000000 1.000000000000000
-4.200000000000000 -4.200000000000000 1.000000000000000
-4.200000000000000 -3.800000000000000 1.000000000000000
-4.200000000000000 -3.400000000000000 1.000000000000000
-4.200000000000000 -3.000000000000000 1.000000000000000
-4.200000000000000 -2.600000000000000 1.000000000000000
-4.200000000000000 -2.200000000000000 1.000000000000000
-4.200000000000000 -1.800000000000000 1.000000000000000
-4.200000000000000 -1.400000000000000 1.000000000000000
-4.200000000000000 -1.000000000000000 1.000000000000000
-4.200000000000000 -0.600000000000000 1.000000000000000
-4.200000000000000 -0.199999999999999 1.000000000000000
-4.200000000000000 0.199999999999999 1.000000000000000
-4.200000000000000 0.600000000000000 1.000000000000000
-4.200000000000000 1.000000000000000 1.000000000000000
-4.200000000000000 1.400000000000000 1.000000000000000
-4.200000000000000 1.800000000000000 1.000000000000000
-4.200000000000000 2.200000000000000 1.000000000000000
-4.200000000000000 2.600000000000000 1.000000000000000
-4.200000000000000 3.000000000000000 1.000000000000000
-4.200000000000000 3.400000000000000 1.000000000000000
-4.200000000000000 3.800000000000000 1.000000000000000
-4.200000000000000 4.200000000000000 1.000000000000000
-4.200000000000000 4.600000000000000 1.000000000000000
-4.200000000000000 5.000000000000000 1.000000000000000
-3.800000000000000 -5.000000000000000 1.000000000000000
-3.800000000000000 -4.600000000000000 1.000000000000000
-3.800000000000000 -4.200000000000000 1.000000000000000
-3.800000000000000 -3.800000000000000 1.000000000000000
-3.800000000000000 -3.400000000000000 1.000000000000000
-3.800000000000000 -3.000000000000000 1.000000000000000
-3.800000000000000 -2.600000000000000 1.000000000000000
-3.800000000000000 -2.200000000000000 1.000000000000000
-3.800000000000000 -1.800000000000000 1.000000000000000
-3.800000000000000 -1.400000000000000 1.000000000000000
-3.800000000000000 -1.000000000000000 1.000000000000000
-3.800000000000000 -0.600000000000000 1.000000000000000
-3.800000000000000 -0.199999999999999 1.000000000000000
-3.800000000000000 0.199999999999999 1.000000000000000
-3.800000000000000 0.600000000000000 1.000000000000000
-3.800000000000000 1.000000000000000 1.000000000000000
-3.800000000000000 1.400000000000000 1.000000000000000
-3.800000000000000 1.800000000000000 1.000000000000000
-3.800000000000000 2.200000000000000 1.000000000000000
-3.800000000000000 2.600000000000000 1.000000000000000
-3.800000000000000 3.000000000000000 1.000000000000000
-3.800000000000000 3.400000000000000 1.000000000000000
-3.800000000000000 3.800000000000000 1.000000000000000
-3.800000000000000 4.200000000000000 1.000000000000000
-3.800000000000000 4.600000000000000 1.000000000000000
-3.800000000000000 5.000000000000000 1.000000000000000
-3.400000000000000 -5.000000000000000 1.000000000000000
-3.400000000000000 -4.600000000000000 1.000000000000000
-3.400000000000000 -4.200000000000000 1.000000000000000
-3.400000000000000 -3.800000000000000 1.000000000000000
-3.400000000000000 -3.400000000000000 1.000000000000000
-3.400000000000000 -3.000000000000000 1.000000000000000
-3.400000000000000 -2.600000000000000 1.000000000000000
-3.400000000000000 -2.200000000000000 1.000000000000000
-3.400000000000000 -1.800000000000000 1.000000000000000
-3.400000000000000 -1.400000000000000 1.000000000000000
-3.400000000000000 -1.000000000000000 1.000000000000000
-3.400000000000000 -0.600000000000000 1.000000000000000
-3.400000000000000 -0.199999999999999 1.000000000000000
-3.400000000000000 0.199999999999999 1.000000000000000
-3.400000000000000 0.600000000000000 1.000000000000000
-3.400000000000000 1.000000000000000 1.000000000000000
-3.400000000000000 1.400000000000000 1.000000000000000
-3.400000000000000 1.800000000000000 1.000000000000000
-3.400000000000000 2.200000000000000 1.000000000000000
-3.400000000000000 2.600000000000000 1.000000000000000
-3.400000000000000 3.000000000000000 1.000000000000000
-3.400000000000000 3.400000000000000 1.000000000000000
-3.400000000000000 3.800000000000000 1.000000000000000
-3.400000000000000 4.200000000000000 1.000000000000000
-3.400000000000000 4.600000000000000 1.000000000000000
-3.400000000000000 5.000000000000000 1.000000000000000
-3.000000000000000 -5.000000000000000 1.000000000000000
-3.000000000000000 -4.600000000000000 1.000000000000000
-3.000000000000000 -4.200000000000000 1.000000000000000
-3.000000000000000 -3.800000000000000 1.000000000000000
-3.000000000000000 -3.400000000000000 1.000000000000000
-3.000000000000000 -3.000000000000000 1.000000000000000
-3.000000000000000 -2.600000000000000 1.000000000000000
-3.000000000000000 -2.200000000000000 1.000000000000000
-3.000000000000000 -1.800000000000000 1.000000000000000
-3.000000000000000 -1.400000000000000 1.000000000000000
-3.000000000000000 -1.000000000000000 1.000000000000000
-3.000000000000000 -0.600000000000000 1.000000000000000
-3.000000000000000 -0.199999999999999 1.000000000000000
-3.000000000000000 0.199999999999999 1.000000000000000
-3.000000000000000 0.600000000000000 1.000000000000000
-3.000000000000000 1.000000000000000 1.000000000000000
-3.000000000000000 1.400000000000000 1.000000000000000
-3.000000000000000 1.800000000000000 1.000000000000000
-3.000000000000000 2.200000000000000 1.000000000000000
-3.000000000000000 2.600000000000000 1.000000000000000
-3.000000000000000 3.000000000000000 1.000000000000000
-3.000000000000000 3.400000000000000 1.000000000000000
-3.000000000000000 3.800000000000000 1.000000000000000
-3.000000000000000 4.200000000000000 1.000000000000000
-3.000000000000000 4.600000000000000 1.000000000000000
-3.000000000000000 5.000000000000000 1.000000000000000
-2.600000000000000 -5.000000000000000 1.000000000000000
-2.600000000000000 -4.600000000000000 1.000000000000000
-2.600000000000000 -4.200000000000000 1.000000000000000
-2.600000000000000 -3.800000000000000 1.000000000000000
-2.600000000000000 -3.400000000000000 1.000000000000000
-2.600000000000000 -3.000000000000000 1.000000000000000
-2.600000000000000 -2.600000000000000 1.000000000000000
-2.600000000000000 -2.200000000000000 1.000000000000000
-2.600000000000000 -1.800000000000000 1.000000000000000
-2.600000000000000 -1.400000000000000 1.000000000000000
-2.600000000000000 -1.000000000000000 1.000000000000000
-2.600000000000000 -0.600000000000000 1.000000000000000
-2.600000000000000 -0.199999999999999 1.000000000000000
-2.600000000000000 0.199999999999999 1.000000000000000
-2.600000000000000 0.600000000000000 1.000000000000000
-2.600000000000000 1.000000000000000 1.000000000000000
-2.600000000000000 1.400000000000000 1.000000000000000
-2.600000000000000 1.800000000000000 1.000000000000000
-2.600000000000000 2.200000000000000 1.000000000000000
-2.600000000000000 2.600000000000000 1.000000000000000
-2.600000000000000 3.000000000000000 1.000000000000000
-2.600000000000000 3.400000000000000 1.000000000000000
-2.600000000000000 3.800000000000000 1.000000000000000
-2.600000000000000 4.200000000000000 1.000000000000000
-2.600000000000000 4.600000000000000 1.000000000000000
-2.600000000000000 5.000000000000000 1.000000000000000
-2.200000000000000 -5.000000000000000 1.000000000000000
-2.200000000000000 -4.600000000000000 1.000000000000000
-2.200000000000000 -4.200000000000000 1.000000000000000
-2.200000000000000 -3.800000000000000 1.000000000000000
-2.200000000000000 -3.400000000000000 1.000000000000000
-2.200000000000000 -3.000000000000000 1.000000000000000
-2.200000000000000 -2.600000000000000 1.000000000000000
-2.200000000000000 -2.200000000000000 1.000000000000000
-2.200000000000000 -1.800000000000000 1.000000000000000
-2.200000000000000 -1.400000000000000 1.000000000000000
-2.200000000000000 -1.000000000000000 1.000000000000000
-2.200000000000000 -0.600000000000000 1.000000000000000
-2.200000000000000 -0.199999999999999 1.000000000000000
-2.200000000000000 0.199999999999999 1.000000000000000
-2.200000000000000 0.600000000000000 1.000000000000000
-2.200000000000000 1.000000000000000 1.000000000000000
-2.200000000000000 1.400000000000000 1.000000000000000
-2.200000000000000 1.800000000000000 1.000000000000000
-2.200000000000000 2.200000000000000 1.000000000000000
-2.200000000000000 2.600000000000000 1.000000000000000
-2.200000000000000 3.000000000000000 1.000000000000000
-2.200000000000000 3.400000000000000 1.000000000000000
-2.200000000000000 3.800000000000000 1.000000000000000
-2.200000000000000 4.200000000000000 1.000000000000000
-2.200000000000000 4.600000000000000 1.000000000000000
-2.200000000000000 5.000000000000000 1.000000000000000
-1.800000000000000 -5.000000000000000 1.000000000000000
-1.800000000000000 -4.600000000000000 1.000000000000000
-1.800000000000000 -4.200000000000000 1.000000000000000
-1.800000000000000 -3.800000000000000 1.000000000000000
-1.800000000000000 -3.400000000000000 1.000000000000000
-1.800000000000000 -3.000000000000000 1.000000000000000
-1.800000000000000 -2.600000000000000 1.000000000000000
-1.800000000000000 -2.200000000000000 1.000000000000000
-1.800000000000000 -1.800000000000000 1.000000000000000
-1.800000000000000 -1.400000000000000 1.000000000000000
-1.800000000000000 -1.000000000000000 1.000000000000000
-1.800000000000000 -0.600000000000000 1.000000000000000
-1.800000000000000 -0.199999999999999 1.000000000000000
-1.800000000000000 0.199999999999999 1.000000000000000
-1.800000000000000 0.600000000000000 1.000000000000000
-1.800000000000000 1.000000000000000 1.000000000000000
-1.800000000000000 1.400000000000000 1.000000000000000
-1.800000000000000 1.800000000000000 1.000000000000000
-1.800000000000000 2.200000000000000 1.000000000000000
-1.800000000000000 2.600000000000000 1.000000000000000
-1.800000000000000 3.000000000000000 1.000000000000000
-1.800000000000000 3.400000000000000 1.000000000000000
-1.800000000000000 3.800000000000000 1.000000000000000
-1.800000000000000 4.200000000000000 1.000000000000000
-1.800000000000000 4.600000000000000 1.000000000000000
-1.800000000000000 5.000000000000000 1.000000000000000
-1.400000000000000 -5.000000000000000 1.000000000000000
-1.400000000000000 -4.600000000000000 1.000000000000000
-1.400000000000000 -4.200000000000000 1.000000000000000
-1.400000000000000 -3.800000000000000 1.000000000000000
-1.400000000000000 -3.400000000000000 1.000000000000000
-1.400000000000000 -3.000000000000000 1.000000000000000
-1.400000000000000 -2.600000000000000 1.000000000000000
-1.400000000000000 -2.200000000000000 1.000000000000000
-1.400000000000000 -1.800000000000000 1.000000000000000
-1.400000000000000 -1.400000000000000 1.000000000000000
-1.400000000000000 -1.000000000000000 1.000000000000000
-1.400000000000000 -0.600000000000000 1.000000000000000
-1.400000000000000 -0.199999999999999 1.000000000000000
-1.400000000000000 0.199999999999999 1.000000000000000
-1.400000000000000 0.600000000000000 1.000000000000000
-1.400000000000000 1.000000000000000 1.000000000000000
-1.400000000000000 1.400000000000000 1.000000000000000
-1.400000000000000 1.800000000000000 1.000000000000000
-1.400000000000000 2.200000000000000 1.000000000000000
-1.400000000000000 2.600000000000000 1.000000000000000
-1.400000000000000 3.000000000000000 1.000000000000000
-1.400000000000000 3.400000000000000 1.000000000000000
-1.400000000000000 3.800000000000000 1.000000000000000
-1.400000000000000 4.200000000000000 1.000000000000000
-1.400000000000000 4.600000000000000 1.000000000000000
-1.400000000000000 5.000000000000000 1.000000000000000
-1.000000000000000 -5.000000000000000 1.000000000000000
-1.000000000000000 -4.600000000000000 1.000000000000000
-1.000000000000000 -4.200000000000000 1.000000000000000
-1.000000000000000 -3.800000000000000 1.000000000000000
-1.000000000000000 -3.400000000000000 1.000000000000000
-1.000000000000000 -3.000000000000000 1.000000000000000
-1.000000000000000 -2.600000000000000 1.000000000000000
-1.000000000000000 -2.200000000000000 1.000000000000000
-1.000000000000000 -1.800000000000000 1.000000000000000
-1.000000000000000 -1.400000000000000 1.000000000000000
-1.000000000000000 -1.000000000000000 1.000000000000000
-1.000000000000000 -0.600000000000000 1.000000000000000
-1.000000000000000 -0.199999999999999 1.000000000000000
-1.000000000000000 0.199999999999999 1.000000000000000
-1.000000000000000 0.600000000000000 1.000000000000000
-1.000000000000000 1.000000000000000 1.000000000000000
-1.000000000000000 1.400000000000000 1.000000000000000
-1.000000000000000 1.800000000000000 1.000000000000000
-1.000000000000000 2.200000000000000 1.000000000000000
-1.000000000000000 2.600000000000000 1.000000000000000
-1.000000000000000 3.000000000000000 1.000000000000000
-1.000000000000000 3.400000000000000 1.000000000000000
-1.000000000000000 3.800000000000000 1.000000000000000
-1.000000000000000 4.200000000000000 1.000000000000000
-1.000000000000000 4.600000000000000 1.000000000000000
-1.000000000000000 5.000000000000000 1.000000000000000
-0.600000000000000 -5.000000000000000 1.000000000000000
-0.600000000000000 -4.600000000000000 1.000000000000000
-0.600000000000000 -4.200000000000000 1.000000000000000
-0.600000000000000 -3.800000000000000 1.000000000000000
-0.600000000000000 -3.400000000000000 1.000000000000000
-0.600000000000000 -3.000000000000000 1.000000000000000
-0.600000000000000 -2.600000000000000 1.000000000000000
-0.600000000000000 -2.200000000000000 1.000000000000000
-0.600000000000000 -1.800000000000000 1.000000000000000
-0.600000000000000 -1.400000000000000 1.000000000000000
-0.600000000000000 -1.000000000000000 1.000000000000000
-0.600000000000000 -0.600000000000000 1.000000000000000
-0.600000000000000 -0.199999999999999 1.000000000000000
-0.600000000000000 0.199999999999999 1.000000000000000
-0.600000000000000 0.600000000000000 1.000000000000000
-0.600000000000000 1.000000000000000 1.000000000000000
-0.600000000000000 1.400000000000000 1.000000000000000
-0.600000000000000 1.800000000000000 1.000000000000000
-0.600000000000000 2.200000000000000 1.000000000000000
-0.600000000000000 2.600000000000000 1.000000000000000
-0.600000000000000 3.000000000000000 1.000000000000000
-0.600000000000000 3.400000000000000 1.000000000000000
-0.600000000000000 3.800000000000000 1.000000000000000
-0.600000000000000 4.200000000000000 1.000000000000000
-0.600000000000000 4.600000000000000 1.000000000000000
-0.600000000000000 5.000000000000000 1.000000000000000
-0.199999999999999 -5.000000000000000 1.000000000000000
-0.199999999999999 -4.600000000000000 1.000000000000000
-0.199999999999999 -4.200000000000000 1.000000000000000
-0.199999999999999 -3.800000000000000 1.000000000000000
-0.199999999999999 -3.400000000000000 1.000000000000000
-0.199999999999999 -3.000000000000000 1.000000000000000
-0.199999999999999 -2.600000000000000 1.000000000000000
-0.199999999999999 -2.200000000000000 1.000000000000000
-0.199999999999999 -1.800000000000000 1.000000000000000
-0.199999999999999 -1.400000000000000 1.000000000000000
-0.199999999999999 -1.000000000000000 1.000000000000000
-0.199999999999999 -0.600000000000000 1.000000000000000
-0.199999999999999 -0.199999999999999 1.000000000000000
-0.199999999999999 0.199999999999999 1.000000000000000
-0.199999999999999 0.600000000000000 1.000000000000000
-0.199999999999999 1.000000000000000 1.000000000000000
-0.199999999999999 1.400000000000000 1.000000000000000
-0.199999999999999 1.800000000000000 1.000000000000000
-0.199999999999999 2.200000000000000 1.000000000000000
-0.199999999999999 2.600000000000000 1.000000000000000
-0.199999999999999 3.000000000000000 1.000000000000000
-0.199999999999999 3.400000000000000 1.000000000000000
-0.199999999999999 3.800000000000000 1.000000000000000
-0.199999999999999 4.200000000000000 1.000000000000000
-0.199999999999999 4.600000000000000 1.000000000000000
-0.199999999999999 5.000000000000000 1.000000000000000
0.199999999999999 -5.000000000000000 1.000000000000000
0.199999999999999 -4.600000000000000 1.000000000000000
0.199999999999999 -4.200000000000000 1.000000000000000
0.199999999999999 -3.800000000000000 1.000000000000000
0.199999999999999 -3.400000000000000 1.000000000000000
0.199999999999999 -3.000000000000000 1.000000000000000
0.199999999999999 -2.600000000000000 1.000000000000000
0.199999999999999 -2.200000000000000 1.000000000000000
0.199999999999999 -1.800000000000000 1.000000000000000
0.199999999999999 -1.400000000000000 1.000000000000000
0.199999999999999 -1.000000000000000 1.000000000000000
0.199999999999999 -0.600000000000000 1.000000000000000
0.199999999999999 -0.199999999999999 1.000000000000000
0.199999999999999 0.199999999999999 1.000000000000000
0.199999999999999 0.600000000000000 1.000000000000000
0.199999999999999 1.000000000000000 1.000000000000000
0.199999999999999 1.400000000000000 1.000000000000000
0.199999999999999 1.800000000000000 1.000000000000000
0.199999999999999 2.200000000000000 1.000000000000000
0.199999999999999 2.600000000000000 1.000000000000000
0.199999999999999 3.000000000000000 1.000000000000000
0.199999999999999 3.400000000000000 1.000000000000000
0.199999999999999 3.800000000000000 1.000000000000000
0.199999999999999 4.200000000000000 1.000000000000000
0.199999999999999 4.600000000000000 1.000000000000000
0.199999999999999 5.000000000000000 1.000000000000000
0.600000000000000 -5.000000000000000 1.000000000000000
0.600000000000000 -4.600000000000000 1.000000000000000
0.600000000000000 -4.200000000000000 1.000000000000000
0.600000000000000 -3.800000000000000 1.000000000000000
0.600000000000000 -3.400000000000000 1.000000000000000
0.600000000000000 -3.000000000000000 1.000000000000000
0.600000000000000 -2.600000000000000 1.000000000000000
0.600000000000000 -2.200000000000000 1.000000000000000
0.600000000000000 -1.800000000000000 1.000000000000000
0.600000000000000 -1.400000000000000 1.000000000000000
0.600000000000000 -1.000000000000000 1.000000000000000
0.600000000000000 -0.600000000000000 1.000000000000000
0.600000000000000 -0.199999999999999 1.000000000000000
0.600000000000000 0.199999999999999 1.000000000000000
0.600000000000000 0.600000000000000 1.000000000000000
0.600000000000000 1.000000000000000 1.000000000000000
0.600000000000000 1.400000000000000 1.000000000000000
0.600000000000000 1.800000000000000 1.000000000000000
0.600000000000000 2.200000000000000 1.000000000000000
0.600000000000000 2.600000000000000 1.000000000000000
0.600000000000000 3.000000000000000 1.000000000000000
0.600000000000000 3.400000000000000 1.000000000000000
0.600000000000000 3.800000000000000 1.000000000000000
0.600000000000000 4.200000000000000 1.000000000000000
0.600000000000000 4.600000000000000 1.000000000000000
0.600000000000000 5.000000000000000 1.000000000000000
1.000000000000000 -5.000000000000000 1.000000000000000
1.000000000000000 -4.600000000000000 1.000000000000000
1.000000000000000 -4.200000000000000 1.000000000000000
1.000000000000000 -3.800000000000000 1.000000000000000
1.000000000000000 -3.400000000000000 1.000000000000000
1.000000000000000 -3.000000000000000 1.000000000000000
1.000000000000000 -2.600000000000000 1.000000000000000
1.000000000000000 -2.200000000000000 1.000000000000000
1.000000000000000 -1.800000000000000 1.000000000000000
1.000000000000000 -1.400000000000000 1.000000000000000
1.000000000000000 -1.000000000000000 1.000000000000000
1.000000000000000 -0.600000000000000 1.000000000000000
1.000000000000000 -0.199999999999999 1.000000000000000
1.000000000000000 0.199999999999999 1.000000000000000
1.000000000000000 0.600000000000000 1.000000000000000
1.000000000000000 1.000000000000000 1.000000000000000
1.000000000000000 1.400000000000000 1.000000000000000
1.000000000000000 1.800000000000000 1.000000000000000
1.000000000000000 2.200000000000000 1.000000000000000
1.000000000000000 2.600000000000000 1.000000000000000
1.000000000000000 3.000000000000000 1.000000000000000
1.000000000000000 3.400000000000000 1.000000000000000
1.000000000000000 3.800000000000000 1.000000000000000
1.000000000000000 4.200000000000000 1.000000000000000
1.000000000000000 4.600000000000000 1.000000000000000
1.000000000000000 5.000000000000000 1.000000000000000
1.400000000000000 -5.000000000000000 1.000000000000000
1.400000000000000 -4.600000000000000 1.000000000000000
1.400000000000000 -4.200000000000000 1.000000000000000
1.400000000000000 -3.800000000000000 1.000000000000000
1.400000000000000 -3.400000000000000 1.000000000000000
1.400000000000000 -3.000000000000000 1.000000000000000
1.400000000000000 -2.600000000000000 1.000000000000000
1.400000000000000 -2.200000000000000 1.000000000000000
1.400000000000000 -1.800000000000000 1.000000000000000
1.400000000000000 -1.400000000000000 1.000000000000000
1.400000000000000 -1.000000000000000 1.000000000000000
1.400000000000000 -0.600000000000000 1.000000000000000
1.400000000000000 -0.199999999999999 1.000000000000000
1.400000000000000 0.199999999999999 1.000000000000000
1.400000000000000 0.600000000000000 1.000000000000000
1.400000000000000 1.000000000000000 1.000000000000000
1.400000000000000 1.400000000000000 1.000000000000000
1.400000000000000 1.800000000000000 1.000000000000000
1.400000000000000 2.200000000000000 1.000000000000000
1.400000000000000 2.600000000000000 1.000000000000000
1.400000000000000 3.000000000000000 1.000000000000000
1.400000000000000 3.400000000000000 1.000000000000000
1.400000000000000 3.800000000000000 1.000000000000000
1.400000000000000 4.200000000000000 1.000000000000000
1.400000000000000 4.600000000000000 1.000000000000000
1.400000000000000 5.000000000000000 1.000000000000000
1.800000000000000 -5.000000000000000 1.000000000000000
1.800000000000000 -4.600000000000000 1.000000000000000
1.800000000000000 -4.200000000000000 1.000000000000000
1.800000000000000 -3.800000000000000 1.000000000000000
1.800000000000000 -3.400000000000000 1.000000000000000
1.800000000000000 -3.000000000000000 1.000000000000000
1.800000000000000 -2.600000000000000 1.000000000000000
1.800000000000000 -2.200000000000000 1.000000000000000
1.800000000000000 -1.800000000000000 1.000000000000000
1.800000000000000 -1.400000000000000 1.000000000000000
1.800000000000000 -1.000000000000000 1.000000000000000
1.800000000000000 -0.600000000000000 1.000000000000000
1.800000000000000 -0.199999999999999 1.000000000000000
1.800000000000000 0.199999999999999 1.000000000000000
1.800000000000000 0.600000000000000 1.000000000000000
1.800000000000000 1.000000000000000 1.000000000000000
1.800000000000000 1.400000000000000 1.000000000000000
1.800000000000000 1.800000000000000 1.000000000000000
1.800000000000000 2.200000000000000 1.000000000000000
1.800000000000000 2.600000000000000 1.000000000000000
1.800000000000000 3.000000000000000 1.000000000000000
1.800000000000000 3.400000000000000 1.000000000000000
1.800000000000000 3.800000000000000 1.000000000000000
1.800000000000000 4.200000000000000 1.000000000000000
1.800000000000000 4.600000000000000 1.000000000000000
1.800000000000000 5.000000000000000 1.000000000000000
2.200000000000000 -5.000000000000000 1.000000000000000
2.200000000000000 -4.600000000000000 1.000000000000000
2.200000000000000 -4.200000000000000 1.000000000000000
2.200000000000000 -3.800000000000000 1.000000000000000
2.200000000000000 -3.400000000000000 1.000000000000000
2.200000000000000 -3.000000000000000 1.000000000000000
2.200000000000000 -2.600000000000000 1.000000000000000
2.200000000000000 -2.200000000000000 1.000000000000000
2.200000000000000 -1.800000000000000 1.000000000000000
2.200000000000000 -1.400000000000000 1.000000000000000
2.200000000000000 -1.000000000000000 1.000000000000000
2.200000000000000 -0.600000000000000 1.000000000000000
2.200000000000000 -0.199999999999999 1.000000000000000
2.200000000000000 0.199999999999999 1.000000000000000
2.200000000000000 0.600000000000000 1.000000000000000
2.200000000000000 1.000000000000000 1.000000000000000
2.200000000000000 1.400000000000000 1.000000000000000
2.200000000000000 1.800000000000000 1.000000000000000
2.200000000000000 2.200000000000000 1.000000000000000
2.200000000000000 2.600000000000000 1.000000000000000
2.200000000000000 3.000000000000000 1.000000000000000
2.200000000000000 3.400000000000000 1.000000000000000
2.200000000000000 3.800000000000000 1.000000000000000
2.200000000000000 4.200000000000000 1.000000000000000
2.200000000000000 4.600000000000000 1.000000000000000
2.200000000000000 5.000000000000000 1.000000000000000
2.600000000000000 -5.000000000000000 1.000000000000000
2.600000000000000 -4.600000000000000 1.000000000000000
2.600000000000000 -4.200000000000000 1.000000000000000
2.600000000000000 -3.800000000000000 1.000000000000000
2.600000000000000 -3.400000000000000 1.000000000000000
2.600000000000000 -3.000000000000000 1.000000000000000
2.600000000000000 -2.600000000000000 1.000000000000000
2.600000000000000 -2.200000000000000 1.000000000000000
2.600000000000000 -1.800000000000000 1.000000000000000
2.600000000000000 -1.400000000000000 1.000000000000000
2.600000000000000 -1.000000000000000 1.000000000000000
2.600000000000000 -0.600000000000000 1.000000000000000
2.600000000000000 -0.199999999999999 1.000000000000000
2.600000000000000 0.199999999999999 1.000000000000000
2.600000000000000 0.600000000000000 1.000000000000000
2.600000000000000 1.000000000000000 1.000000000000000
2.600000000000000 1.400000000000000 1.000000000000000
2.600000000000000 1.800000000000000 1.000000000000000
2.600000000000000 2.200000000000000 1.000000000000000
2.600000000000000 2.600000000000000 1.000000000000000
2.600000000000000 3.000000000000000 1.000000000000000
2.600000000000000 3.400000000000000 1.000000000000000
2.600000000000000 3.800000000000000 1.000000000000000
2.600000000000000 4.200000000000000 1.000000000000000
2.600000000000000 4.600000000000000 1.000000000000000
2.600000000000000 5.000000000000000 1.000000000000000
3.000000000000000 -5.000000000000000 1.000000000000000
3.000000000000000 -4.600000000000000 1.000000000000000
3.000000000000000 -4.200000000000000 1.000000000000000
3.000000000000000 -3.800000000000000 1.000000000000000
3.000000000000000 -3.400000000000000 1.000000000000000
3.000000000000000 -3.000000000000000 1.000000000000000
3.000000000000000 -2.600000000000000 1.000000000000000
3.000000000000000 -2.200000000000000 1.000000000000000
3.000000000000000 -1.800000000000000 1.000000000000000
3.000000000000000 -1.400000000000000 1.000000000000000
3.000000000000000 -1.000000000000000 1.000000000000000
3.000000000000000 -0.600000000000000 1.000000000000000
3.000000000000000 -0.199999999999999 1.000000000000000
3.000000000000000 0.199999999999999 1.000000000000000
3.000000000000000 0.600000000000000 1.000000000000000
3.000000000000000 1.000000000000000 1.000000000000000
3.000000000000000 1.400000000000000 1.000000000000000
3.000000000000000 1.800000000000000 1.000000000000000
3.000000000000000 2.200000000000000 1.000000000000000
3.000000000000000 2.600000000000000 1.000000000000000
3.000000000000000 3.000000000000000 1.000000000000000
3.000000000000000 3.400000000000000 1.000000000000000
3.000000000000000 3.800000000000000 1.000000000000000
3.000000000000000 4.200000000000000 1.000000000000000
3.000000000000000 4.600000000000000 1.000000000000000
3.000000000000000 5.000000000000000 1.000000000000000
3.400000000000000 -5.000000000000000 1.000000000000000
3.400000000000000 -4.600000000000000 1.000000000000000
3.400000000000000 -4.200000000000000 1.000000000000000
3.400000000000000 -3.800000000000000 1.000000000000000
3.400000000000000 -3.400000000000000 1.000000000000000
3.400000000000000 -3.000000000000000 1.000000000000000
3.400000000000000 -2.600000000000000 1.000000000000000
3.400000000000000 -2.200000000000000 1.000000000000000
3.400000000000000 -1.800000000000000 1.000000000000000
3.400000000000000 -1.400000000000000 1.000000000000000
3.400000000000000 -1.000000000000000 1.000000000000000
3.400000000000000 -0.600000000000000 1.000000000000000
3.400000000000000 -0.199999999999999 1.000000000000000
3.400000000000000 0.199999999999999 1.000000000000000
3.400000000000000 0.600000000000000 1.000000000000000
3.400000000000000 1.000000000000000 1.000000000000000
3.400000000000000 1.400000000000000 1.000000000000000
3.400000000000000 1.800000000000000 1.000000000000000
3.400000000000000 2.200000000000000 1.000000000000000
3.400000000000000 2.600000000000000 1.000000000000000
3.400000000000000 3.000000000000000 1.000000000000000
3.400000000000000 3.400000000000000 1.000000000000000
3.400000000000000 3.800000000000000 1.000000000000000
3.400000000000000 4.200000000000000 1.000000000000000
3.400000000000000 4.600000000000000 1.000000000000000
3.400000000000000 5.000000000000000 1.000000000000000
3.800000000000000 -5.000000000000000 1.000000000000000
3.800000000000000 -4.600000000000000 1.000000000000000
3.800000000000000 -4.200000000000000 1.000000000000000
3.800000000000000 -3.800000000000000 1.000000000000000
3.800000000000000 -3.400000000000000 1.000000000000000
3.800000000000000 -3.000000000000000 1.000000000000000
3.800000000000000 -2.600000000000000 1.000000000000000
3.800000000000000 -2.200000000000000 1.000000000000000
3.800000000000000 -1.800000000000000 1.000000000000000
3.800000000000000 -1.400000000000000 1.000000000000000
3.800000000000000 -1.000000000000000 1.000000000000000
3.800000000000000 -0.600000000000000 1.000000000000000
3.800000000000000 -0.199999999999999 1.000000000000000
3.800000000000000 0.199999999999999 1.000000000000000
3.800000000000000 0.600000000000000 1.000000000000000
3.800000000000000 1.000000000000000 1.000000000000000
3.800000000000000 1.400000000000000 1.000000000000000
3.800000000000000 1.800000000000000 1.000000000000000
3.800000000000000 2.200000000000000 1.000000000000000
3.800000000000000 2.600000000000000 1.000000000000000
3.800000000000000 3.000000000000000 1.000000000000000
3.800000000000000 3.400000000000000 1.000000000000000
3.800000000000000 3.800000000000000 1.000000000000000
3.800000000000000 4.200000000000000 1.000000000000000
3.800000000000000 4.600000000000000 1.000000000000000
3.800000000000000 5.000000000000000 1.000000000000000
4.200000000000000 -5.000000000000000 1.000000000000000
4.200000000000000 -4.600000000000000 1.000000000000000
4.200000000000000 -4.200000000000000 1.000000000000000
4.200000000000000 -3.800000000000000 1.000000000000000
4.200000000000000 -3.400000000000000 1.000000000000000
4.200000000000000 -3.000000000000000 1.000000000000000
4.200000000000000 -2.600000000000000 1.000000000000000
4.200000000000000 -2.200000000000000 1.000000000000000
4.200000000000000 -1.800000000000000 1.000000000000000
4.200000000000000 -1.400000000000000 1.000000000000000
4.200000000000000 -1.000000000000000 1.000000000000000
4.200000000000000 -0.600000000000000 1.000000000000000
4.200000000000000 -0.199999999999999 1.000000000000000
4.200000000000000 0.199999999999999 1.000000000000000
4.200000000000000 0.600000000000000 1.000000000000000
4.200000000000000 1.000000000000000 1.000000000000000
4.200000000000000 1.400000000000000 1.000000000000000
4.200000000000000 1.800000000000000 1.000000000000000
4.200000000000000 2.200000000000000 1.000000000000000
4.200000000000000 2.600000000000000 1.000000000000000
4.200000000000000 3.000000000000000 1.000000000000000
4.200000000000000 3.400000000000000 1.000000000000000
4.200000000000000 3.800000000000000 1.000000000000000
4.200000000000000 4.200000000000000 1.000000000000000
4.200000000000000 4.600000000000000 1.000000000000000
4.200000000000000 5.000000000000000 1.000000000000000
4.600000000000000 -5.000000000000000 1.000000000000000
4.600000000000000 -4.600000000000000 1.000000000000000
4.600000000000000 -4.200000000000000 1.000000000000000
4.600000000000000 -3.800000000000000 1.000000000000000
4.600000000000000 -3.400000000000000 1.000000000000000
4.600000000000000 -3.000000000000000 1.000000000000000
4.600000000000000 -2.600000000000000 1.000000000000000
4.600000000000000 -2.200000000000000 1.000000000000000
4.600000000000000 -1.800000000000000 1.000000000000000
4.600000000000000 -1.400000000000000 1.000000000000000
4.600000000000000 -1.000000000000000 1.000000000000000
4.600000000000000 -0.600000000000000 1.000000000000000
4.600000000000000 -0.199999999999999 1.000000000000000
4.600000000000000 0.199999999999999 1.000000000000000
4.600000000000000 0.600000000000000 1.000000000000000
4.600000000000000 1.000000000000000 1.000000000000000
4.600000000000000 1.400000000000000 1.000000000000000
4.600000000000000 1.800000000000000 1.000000000000000
4.600000000000000 2.200000000000000 1.000000000000000
4.600000000000000 2.600000000000000 1.000000000000000
4.600000000000000 3.000000000000000 1.000000000000000
4.600000000000000 3.400000000000000 1.000000000000000
4.600000000000000 3.800000000000000 1.000000000000000
4.600000000000000 4.200000000000000 1.000000000000000
4.600000000000000 4.600000000000000 1.000000000000000
4.600000000000000 5.000000000000000 1.000000000000000
5.000000000000000 -5.000000000000000 1.000000000000000
5.000000000000000 -4.600000000000000 1.000000000000000
5.000000000000000 -4.200000000000000 1.000000000000000
5.000000000000000 -3.800000000000000 1.000000000000000
5.000000000000000 -3.400000000000000 1.000000000000000
5.000000000000000 -3.000000000000000 1.000000000000000
5.000000000000000 -2.600000000000000 1.000000000000000
5.000000000000000 -2.200000000000000 1.000000000000000
5.000000000000000 -1.800000000000000 1.000000000000000
5.000000000000000 -1.400000000000000 1.000000000000000
5.000000000000000 -1.000000000000000 1.000000000000000
5.000000000000000 -0.600000000000000 1.000000000000000
5.000000000000000 -0.199999999999999 1.000000000000000
5.000000000000000 0.199999999999999 1.000000000000000
5.000000000000000 0.600000000000000 1.000000000000000
5.000000000000000 1.000000000000000 1.000000000000000
5.000000000000000 1.400000000000000 1.000000000000000
5.000000000000000 1.800000000000000 1.000000000000000
5.000000000000000 2.200000000000000 1.000000000000000
5.000000000000000 2.600000000000000 1.000000000000000
5.000000000000000 3.000000000000000 1.000000000000000
5.000000000000000 3.400000000000000 1.000000000000000
5.000000000000000 3.800000000000000 1.000000000000000
5.000000000000000 4.200000000000000 1.000000000000000
5.000000000000000 4.600000000000000 1.000000000000000
5.000000000000000 5.000000000000000 1.000000000000000
